<svg width="2977" height="576" viewBox="0 0 2977 576" fill="none" xmlns="http://www.w3.org/2000/svg">
<rect width="2977" height="576" fill="white"></rect>
<g clip-path="url(#clip0_42_189)">
<path d="M1046.49 263.194V263.213V264.483C1046.49 264.483 1046.51 264.483 1046.49 264.502C1046.45 264.502 1046.43 264.56 1046.43 264.599C1046.43 264.637 1046.47 264.656 1046.51 264.656C1047.1 264.695 1047.64 264.752 1048.14 264.868C1048.7 264.983 1049.2 265.176 1049.67 265.464C1051.75 266.676 1052.79 268.6 1052.79 271.255C1052.79 274.295 1052.79 289.436 1052.79 316.679L1052.82 316.718H1074.84C1074.84 316.718 1074.9 316.756 1074.9 316.775V329.262L1074.82 329.339C1064.84 329.339 1058.58 329.339 1056.06 329.339C1049.51 329.339 1043.89 325.433 1041.44 319.738C1040.69 317.968 1040.38 316.044 1040.38 314.12V263.175L1032.33 263.098C1032.33 263.098 1032.27 263.059 1032.27 263.021V250.515C1032.27 250.515 1032.29 250.477 1032.31 250.477H1040.07L1040.15 250.4V237.009L1040.25 236.856L1051.21 232.161H1051.26H1052.71C1052.77 232.161 1052.81 232.2 1052.81 232.257V250.4L1052.86 250.458H1074.82C1074.82 250.458 1074.9 250.496 1074.9 250.535V262.982L1074.76 263.117H1046.49V263.194Z" fill="#2C2C2C"></path>
<path d="M1009.24 329.353C1009.24 297.666 1009.24 280.005 1009.24 276.561C1009.24 273.54 1008.68 270.654 1007.24 267.942C1004.91 263.555 1000.48 260.823 995.718 259.765C989.748 258.438 982.814 258.822 977.248 261.67C972.991 263.844 969.794 267.114 967.676 271.501C965.846 275.31 965.037 279.755 965.037 284.006C965.037 291.01 965.037 306.093 965.037 329.276C965.037 329.315 964.998 329.353 964.96 329.353H952.46C952.46 329.353 952.402 329.334 952.402 329.296V252.743C952.402 252.743 952.402 252.704 952.441 252.704L963.4 248.01C963.4 248.01 963.458 248.01 963.477 248.01H964.941C964.941 248.01 965.037 248.029 965.037 248.087V264.344C965.037 264.344 965.037 264.382 965.075 264.382H965.095C965.095 264.363 965.114 264.325 965.133 264.305C965.133 264.267 965.133 264.229 965.153 264.209C967.464 260.515 970.16 257.456 973.261 254.994C974.686 253.859 976.516 252.704 978.731 251.55C980.31 250.703 982.41 249.915 984.971 249.183C985.202 249.106 985.857 248.972 986.936 248.76C992.714 247.587 999.05 247.798 1004.65 249.684C1008.22 250.876 1011.36 252.762 1014.03 255.34C1014.23 255.532 1014.67 256.013 1015.33 256.764C1020.06 262.189 1021.85 269.462 1021.85 276.503C1021.85 309.248 1021.85 326.872 1021.85 329.334C1021.85 329.373 1021.89 329.411 1021.85 329.411H1009.22L1009.24 329.353Z" fill="#2C2C2C"></path>
<path d="M1144.16 315.41C1142.31 318.489 1140.13 321.144 1137.61 323.376C1133.51 327.031 1128.9 329.455 1123.78 330.686C1118.7 331.918 1113.61 332.052 1108.51 331.129C1104.5 330.398 1100.57 328.763 1097.32 326.281C1093.23 323.145 1090.36 318.72 1088.86 313.794C1087.88 310.543 1087.38 307.215 1087.38 303.809C1087.38 288.495 1087.38 271.43 1087.38 252.633C1087.38 252.594 1087.4 252.556 1087.44 252.556L1098.32 247.9C1098.32 247.9 1098.47 247.861 1098.55 247.861H1099.96C1099.96 247.861 1100.01 247.881 1100.01 247.919C1100.01 272.334 1100.01 290.9 1100.01 303.636C1100.01 306.58 1100.75 309.427 1102.19 312.178C1102.34 312.486 1102.81 313.121 1103.56 314.102C1105.12 316.142 1107.54 317.815 1109.74 318.758C1111.69 319.585 1113.69 320.143 1115.75 320.432C1116.94 320.605 1118.25 320.701 1119.68 320.721C1123.51 320.778 1127.02 320.182 1130.19 318.912C1133.62 317.565 1136.47 315.487 1138.78 312.698C1142.6 308.061 1144.22 301.789 1144.22 295.844C1144.22 268.659 1144.22 254.268 1144.22 252.652C1144.22 252.614 1144.23 252.575 1144.27 252.575L1155.23 247.881C1155.23 247.881 1155.27 247.881 1155.29 247.881H1156.75C1156.75 247.881 1156.83 247.919 1156.83 247.958V327.012C1156.83 327.012 1156.83 327.069 1156.79 327.069L1145.83 331.764C1145.83 331.764 1145.76 331.783 1145.72 331.783H1144.29C1144.29 331.783 1144.22 331.745 1144.22 331.706V315.468C1144.22 315.468 1144.22 315.449 1144.2 315.449H1144.18L1144.16 315.41Z" fill="#2C2C2C"></path>
<path d="M1304.44 305.732H1317.21C1317.21 305.732 1317.3 305.771 1317.3 305.828C1317.34 308.445 1318.13 310.753 1319.67 312.774C1322.5 316.448 1327.53 318.276 1331.96 319.026C1335.08 319.565 1338.39 319.7 1341.36 319.565C1344.06 319.43 1346.64 319.026 1349.14 318.315C1351.55 317.641 1354.09 316.391 1356 314.678C1357.94 312.928 1359.02 310.715 1359.23 308.098C1359.43 305.867 1358.83 303.462 1357.25 301.769C1355.56 299.941 1353.28 298.864 1350.93 298.094C1349.41 297.594 1348.01 297.209 1346.73 296.94C1345.71 296.728 1344.08 296.42 1341.84 296.035C1340.51 295.805 1337.8 295.381 1333.68 294.766C1330.86 294.342 1327.94 293.765 1324.87 293.053C1321.83 292.322 1318.92 291.283 1316.13 289.937C1315.36 289.571 1314.45 289.013 1313.36 288.263C1310.85 286.531 1308.6 283.953 1307.44 281.106C1305.94 277.45 1305.61 273.583 1306.06 269.678C1306.62 264.791 1308.52 260.578 1311.8 257.057C1316.42 252.093 1323.02 249.476 1329.65 248.476C1334.54 247.745 1339.49 247.649 1344.54 248.226C1346.91 248.495 1349.37 249.015 1351.68 249.688C1355.02 250.65 1358.06 252.074 1360.83 253.959C1365.55 257.153 1368.94 261.982 1370.31 267.523C1370.79 269.485 1371.04 271.563 1371.06 273.795C1371.06 273.833 1371.02 273.872 1370.98 273.872H1358.19C1358.19 273.872 1358.08 273.814 1358.08 273.756C1358.12 266.118 1351.3 262.078 1344.69 260.731C1343.11 260.404 1341.57 260.212 1340.09 260.116C1335.24 259.808 1330.48 260.077 1325.97 261.732C1323.35 262.694 1320.83 264.31 1319.33 266.561C1317.86 268.773 1317.4 271.313 1317.94 274.18C1318.06 274.738 1318.33 275.43 1318.77 276.258C1319.56 277.7 1320.96 278.97 1322.29 279.701C1325.62 281.587 1329.63 282.51 1333.37 283.164C1338.88 284.146 1344.38 284.838 1349.37 285.858C1353.22 286.647 1357.21 287.782 1360.77 289.571C1363.01 290.687 1365.3 292.322 1366.92 294.246C1368.73 296.382 1369.92 298.787 1370.52 301.461C1371.27 304.943 1371.27 308.464 1370.52 312.023C1369.52 316.718 1367.21 320.662 1363.63 323.836C1358.98 327.973 1352.76 330.243 1346.64 331.109C1341.24 331.878 1335.93 331.917 1330.69 331.243C1323.29 330.281 1315.78 327.588 1310.56 322.047C1306.33 317.564 1304.36 311.927 1304.32 305.79C1304.32 305.732 1304.36 305.694 1304.42 305.694L1304.44 305.732Z" fill="#2C2C2C"></path>
<path d="M875.09 296.055C875.765 301.095 877.363 305.924 880.271 310.003C880.791 310.715 881.504 311.562 882.428 312.543C884.894 315.14 888.245 317.122 891.539 318.161C896.527 319.738 902.151 319.988 907.274 319.065C915.113 317.641 921.565 312.966 924.878 305.674C924.897 305.617 924.955 305.578 925.013 305.578H937.589C937.589 305.578 937.666 305.617 937.666 305.655C937.666 305.655 937.666 305.655 937.666 305.674C936.588 309.291 934.989 312.716 932.851 315.91C931.715 317.622 930.463 319.161 929.076 320.565C925.494 324.202 921.411 326.953 916.827 328.8C915.074 329.512 913.129 330.127 910.991 330.628C909.104 331.07 907.081 331.397 904.944 331.57C895.314 332.359 885.067 330.358 877.19 324.413C873.049 321.277 869.755 317.372 867.348 312.697C866.115 310.292 865.114 307.829 864.343 305.27C863.881 303.731 863.38 301.538 863.072 299.691C862.167 294.285 862.013 288.821 862.61 283.28C863.477 275.142 866.173 267.042 871.489 260.654C875.514 255.825 880.541 252.343 886.608 250.227C891.866 248.38 897.394 247.726 903.037 247.899C908.468 248.072 913.938 249.188 918.83 251.439C925.09 254.325 930.039 258.731 933.641 264.656C936.607 269.524 938.456 275.142 939.284 280.779C939.766 284.011 939.978 287.031 939.939 289.84C939.92 291.88 939.804 293.9 939.65 295.92C939.65 295.939 939.631 295.958 939.612 295.958H875.206C875.206 295.958 875.129 295.997 875.129 296.035L875.09 296.055ZM927.305 283.261C927.17 282.26 927.035 281.317 926.881 280.452C926.303 277.085 925.167 273.968 923.472 271.063C922.047 268.639 920.198 266.58 917.963 264.887C914.901 262.578 911.107 261.116 907.332 260.501C903.403 259.866 899.493 259.846 895.602 260.424C891.096 261.097 886.646 262.905 883.199 265.926C881.388 267.523 879.867 269.389 878.634 271.544C876.612 275.084 875.418 279.201 874.956 283.241C874.956 283.28 874.975 283.318 875.013 283.318H927.247C927.247 283.318 927.324 283.28 927.324 283.241L927.305 283.261Z" fill="#2C2C2C"></path>
<path d="M1231.23 295.957C1231.23 295.957 1231.15 295.996 1231.15 296.034C1231.83 301.075 1233.43 305.904 1236.33 309.983C1236.85 310.695 1237.57 311.541 1238.49 312.522C1240.96 315.12 1244.31 317.101 1247.6 318.14C1252.59 319.718 1258.21 319.968 1263.34 319.045C1271.18 317.621 1277.63 312.946 1280.94 305.654C1280.96 305.596 1281.02 305.558 1281.08 305.558H1293.65C1293.65 305.558 1293.73 305.596 1293.73 305.635C1293.73 305.635 1293.73 305.635 1293.73 305.654C1292.65 309.271 1291.05 312.696 1288.91 315.889C1287.78 317.602 1286.53 319.141 1285.14 320.545C1281.56 324.181 1277.47 326.933 1272.89 328.78C1271.14 329.491 1269.19 330.107 1267.05 330.607C1265.17 331.05 1263.14 331.377 1261.01 331.55C1251.38 332.339 1241.13 330.319 1233.25 324.393C1229.11 321.257 1225.82 317.352 1223.41 312.676C1222.16 310.271 1221.18 307.809 1220.41 305.25C1219.94 303.711 1219.44 301.518 1219.14 299.671C1218.23 294.264 1218.08 288.8 1218.67 283.26C1219.54 275.121 1222.24 267.022 1227.55 260.634C1231.58 255.805 1236.6 252.323 1242.67 250.207C1247.93 248.36 1253.46 247.705 1259.1 247.879C1264.53 248.052 1270 249.168 1274.89 251.419C1281.15 254.304 1286.1 258.71 1289.7 264.636C1292.67 269.503 1294.52 275.121 1295.35 280.758C1295.83 283.991 1296.04 287.011 1296 289.82C1295.98 291.86 1295.87 293.88 1295.71 295.9C1295.71 295.919 1295.69 295.938 1295.68 295.938H1231.27L1231.23 295.957ZM1283.35 283.26C1283.21 282.259 1283.08 281.316 1282.92 280.451C1282.35 277.084 1281.21 273.967 1279.52 271.081C1278.09 268.657 1276.26 266.618 1274.01 264.925C1270.95 262.635 1267.15 261.154 1263.38 260.538C1259.45 259.903 1255.54 259.884 1251.65 260.461C1247.16 261.134 1242.69 262.943 1239.24 265.963C1237.43 267.541 1235.91 269.427 1234.68 271.581C1232.66 275.121 1231.46 279.239 1231 283.279C1231 283.317 1231.02 283.356 1231.06 283.356H1283.27C1283.27 283.356 1283.35 283.317 1283.35 283.279V283.26Z" fill="#2C2C2C"></path>
<path d="M1173.33 329.357C1173.33 329.357 1173.27 329.338 1173.27 329.299C1173.27 309.021 1173.27 287.954 1173.27 266.098C1173.27 261.327 1175.62 256.825 1179.32 253.901C1181.38 252.265 1183.73 251.226 1186.37 250.745C1187.3 250.572 1188.78 250.495 1190.82 250.495C1199.22 250.495 1207.56 250.495 1215.86 250.495C1215.88 250.495 1215.9 250.514 1215.9 250.534V263.039C1215.9 263.039 1215.86 263.116 1215.82 263.116H1179.69C1179.69 263.116 1179.57 263.174 1179.57 263.232V264.598C1179.57 264.598 1179.61 264.694 1179.67 264.713C1181.71 264.751 1183.54 265.598 1184.71 267.272C1185.27 268.08 1185.64 268.984 1185.81 269.985C1185.87 270.312 1185.89 271.293 1185.89 272.909C1185.89 305.904 1185.89 324.682 1185.89 329.261C1185.89 329.318 1185.85 329.357 1185.79 329.357H1173.31H1173.33Z" fill="#2C2C2C"></path>
<path d="M819.969 311.768L846.799 250.144C846.799 250.144 846.856 250.067 846.895 250.067H859.741C859.741 250.067 859.799 250.087 859.799 250.125L826.614 329.237C826.614 329.237 826.575 329.295 826.537 329.295C826.287 329.295 825.978 329.295 825.632 329.295C824.033 329.295 822.184 329.295 820.104 329.295C818.024 329.295 816.175 329.295 814.576 329.295C814.23 329.295 813.921 329.295 813.671 329.295C813.633 329.295 813.594 329.275 813.594 329.237L780.39 250.125C780.39 250.125 780.39 250.067 780.428 250.067H793.275L819.969 311.748V311.768Z" fill="#2C2C2C"></path>
<path d="M630.01 329.361V229.202C630.01 229.202 630.01 229.163 630.03 229.163L641.104 224.431H642.645L642.684 329.361H629.991H630.01Z" fill="#2C2C2C"></path>
<path d="M617.665 289.593C617.665 293.364 617.318 297.058 616.644 300.713C615.874 304.85 614.526 308.813 612.58 312.603C610.539 316.585 607.881 320.01 604.587 322.896C598.578 328.168 590.836 330.938 582.958 331.554C577.431 331.996 571.826 331.592 566.472 330.111C562.292 328.956 558.209 327.032 554.781 324.454C551.064 321.665 548.04 318.279 545.69 314.296C544.111 311.603 542.801 308.601 541.78 305.311C541.703 305.042 541.453 304.099 541.048 302.464C540.817 301.502 540.605 300.54 540.451 299.578C540.182 297.846 540.028 296.865 540.008 296.654C539.758 294.268 539.623 291.902 539.623 289.554C539.623 287.207 539.758 284.841 540.008 282.455C540.028 282.243 540.182 281.262 540.451 279.531C540.605 278.569 540.798 277.607 541.048 276.645C541.453 275.009 541.703 274.067 541.78 273.797C542.801 270.507 544.111 267.525 545.69 264.813C548.04 260.83 551.064 257.444 554.781 254.654C558.209 252.076 562.311 250.172 566.472 248.998C571.826 247.517 577.45 247.113 582.958 247.555C590.855 248.19 598.578 250.96 604.607 256.213C607.9 259.099 610.558 262.523 612.6 266.506C614.545 270.296 615.893 274.259 616.663 278.396C617.338 282.051 617.684 285.764 617.684 289.516L617.665 289.593ZM551.834 289.593C551.834 298.943 554.203 309.044 562.292 314.835C564.026 316.066 565.932 317.066 568.032 317.817C570.054 318.548 572.153 319.029 574.349 319.279C577.45 319.625 580.531 319.606 583.594 319.241C586.425 318.894 589.083 318.125 591.548 316.97C594.707 315.489 597.365 313.373 599.503 310.621C604.106 304.715 605.473 296.884 605.473 289.593C605.473 282.301 604.106 274.471 599.503 268.564C597.365 265.813 594.707 263.697 591.548 262.215C589.083 261.061 586.444 260.311 583.594 259.945C580.531 259.56 577.45 259.541 574.349 259.907C572.153 260.157 570.054 260.638 568.032 261.369C565.932 262.119 564.006 263.12 562.292 264.351C554.222 270.142 551.834 280.243 551.834 289.593Z" fill="#2C2C2C"></path>
<path d="M720.822 267.116C720.822 267.116 720.86 267.155 720.88 267.135C720.88 267.135 720.899 267.116 720.899 267.097V252.244C720.899 252.244 720.918 252.187 720.957 252.167L731.897 247.492C731.897 247.492 732.07 247.434 732.147 247.434H733.553C733.553 247.434 733.611 247.454 733.611 247.492V329.105C733.611 329.105 733.553 329.221 733.495 329.221H720.976C720.976 329.221 720.918 329.201 720.918 329.163V312.098C720.918 312.098 720.899 312.059 720.88 312.059C720.88 312.059 720.841 312.059 720.841 312.078C720.225 313.464 719.532 314.791 718.761 316.061C718.222 316.946 717.548 317.946 716.72 319.043C714.042 322.66 710.518 325.661 706.647 327.778C704.451 328.97 701.986 329.932 699.231 330.644C697.094 331.202 694.667 331.491 692.49 331.625C687.213 331.952 681.82 331.221 677.044 329.336C673.847 328.066 670.881 326.296 668.165 323.987C667.914 323.776 667.298 323.179 666.297 322.179C665.391 321.275 664.505 320.255 663.658 319.101C662.83 317.985 662.156 317.004 661.636 316.157C660.287 313.906 659.113 311.443 658.15 308.75C657.264 306.307 656.551 303.69 656.108 301.054C654.625 292.454 654.779 284.047 656.551 275.851C657.36 272.157 658.67 268.54 660.48 264.961C661.732 262.537 663.311 260.209 665.257 258.016C667.183 255.823 669.301 253.995 671.612 252.533C674.001 251.013 676.524 249.839 679.22 248.993C685.075 247.146 691.604 246.953 697.614 248.108C700.734 248.704 703.758 249.782 706.685 251.34C709.112 252.648 711.5 254.418 713.831 256.669C714.447 257.266 715.237 258.189 715.891 258.997C717.914 261.46 719.57 264.153 720.861 267.058L720.822 267.116ZM720.899 289.607C720.899 280.257 718.53 270.156 710.46 264.365C708.727 263.134 706.82 262.133 704.721 261.383C702.698 260.652 700.599 260.171 698.403 259.921C695.302 259.574 692.221 259.594 689.158 259.959C686.327 260.306 683.669 261.075 681.204 262.229C678.045 263.711 675.387 265.827 673.25 268.578C668.646 274.485 667.279 282.315 667.279 289.607C667.279 296.899 668.646 304.729 673.25 310.635C675.387 313.387 678.045 315.503 681.204 316.984C683.669 318.139 686.308 318.889 689.158 319.255C692.221 319.639 695.302 319.659 698.403 319.293C700.599 319.043 702.698 318.562 704.721 317.831C706.82 317.081 708.746 316.08 710.46 314.849C718.53 309.058 720.918 298.957 720.918 289.607H720.899Z" fill="#2C2C2C"></path>
<path d="M462.581 311.774L489.411 250.151C489.411 250.151 489.469 250.074 489.507 250.074H502.354C502.354 250.074 502.411 250.093 502.411 250.132L469.226 329.244C469.226 329.244 469.188 329.301 469.149 329.301C468.899 329.301 468.591 329.301 468.244 329.301C466.645 329.301 464.796 329.301 462.716 329.301C460.636 329.301 458.787 329.301 457.189 329.301C456.842 329.301 456.534 329.301 456.283 329.301C456.245 329.301 456.206 329.282 456.206 329.244L423.002 250.132C423.002 250.132 423.002 250.074 423.04 250.074H435.887L462.581 311.755V311.774Z" fill="#2C2C2C"></path>
<path d="M526.18 229.569H513.603C513.603 229.569 513.545 229.588 513.545 229.627V242.171C513.545 242.171 513.564 242.248 513.603 242.267L526.237 247.019V229.627C526.237 229.627 526.218 229.569 526.18 229.569Z" fill="#2C2C2C"></path>
<path d="M513.679 329.304C513.679 329.304 513.679 329.343 513.717 329.343H526.313C526.313 329.343 526.371 329.324 526.371 329.285V247.576L513.679 252.347V329.304Z" fill="#2C2C2C"></path>
<path d="M210 203H240.431C242.993 203 245.342 204.404 246.575 206.636L270.342 250.059H240.778C238.255 250.059 235.924 248.712 234.691 246.519L210 203Z" fill="#2C2C2C"></path>
<path d="M303.1 203H333.55L271.687 311.355L256.394 284.324C255.181 282.189 255.181 279.553 256.394 277.417L297.033 206.521C298.285 204.347 300.596 203 303.1 203Z" fill="#2C2C2C"></path>
<path d="M372.285 203H402.524L306.628 373.383L291.181 346.063C289.91 343.831 289.91 341.099 291.181 338.868L365.891 206.713C367.181 204.424 369.627 203 372.266 203H372.285Z" fill="#2C2C2C"></path>
</g>
<path d="M1764.06 211.053C1764.8 210.994 1764.96 210.949 1765.66 211.118C1766.16 211.821 1765.96 228.949 1765.96 231.14L1765.96 270.279C1760.47 270.525 1756.77 273.166 1754.34 277.977C1752.56 281.513 1750.8 285.079 1749 288.606L1736.65 312.931C1730.5 325.075 1725.99 335.807 1716.01 345.382C1700.88 359.903 1683.79 366.148 1663.15 366.025C1662.95 359.699 1663.12 352.48 1663.12 346.098L1663.14 307.047L1574.06 307.034C1573.93 296.199 1574.05 285.124 1574.05 274.269L1574.05 212.319C1584.17 212.13 1594.83 212.296 1604.99 212.296L1663.8 212.309L1663.77 306.785C1664.55 306.789 1665.33 306.771 1666.11 306.732C1672.17 306.412 1675.33 303.022 1677.84 297.88C1679.45 294.562 1681.18 291.197 1682.84 287.897L1695.04 263.851C1700.32 253.431 1704.68 243.336 1712.64 234.711C1726.74 219.449 1743.61 212.122 1764.06 211.053Z" fill="#2C2C2C"></path>
<path d="M2646.03 330C2628.54 330 2617.5 321.563 2617.12 307.916H2629.16C2629.66 315.856 2636.23 320.447 2646.53 320.447C2655.71 320.447 2661.05 316.104 2661.05 310.397C2661.05 294.02 2618.99 308.536 2618.99 281.737C2618.99 269.826 2629.53 261.514 2646.65 261.514C2662.29 261.514 2672.58 270.198 2673.58 283.97H2661.54C2661.17 275.906 2655.21 271.067 2645.54 271.067C2636.73 271.067 2631.52 275.409 2631.52 281.241C2631.52 296.998 2673.7 282.73 2673.7 310.273C2673.7 322.184 2663.15 330 2646.03 330Z" fill="#2C2C2C"></path>
<path d="M2574.52 330C2555.41 330 2541.76 315.732 2541.76 295.633C2541.76 275.658 2555.41 261.514 2574.52 261.514C2590.27 261.514 2603.55 273.3 2603.55 294.764V299.727H2554.79C2555.66 311.514 2562.61 319.578 2574.52 319.578C2583.2 319.578 2589.03 314.491 2590.27 309.28H2602.93C2600.94 320.695 2589.78 330 2574.52 330ZM2554.79 290.298H2590.89C2590.4 279.752 2583.7 272.308 2574.14 272.308C2563.1 272.308 2556.4 279.504 2554.79 290.298Z" fill="#2C2C2C"></path>
<path d="M2499.17 328.015V263.499H2511.21V275.782C2515.42 267.097 2524.23 262.754 2537.01 262.754V274.541C2521.75 274.541 2511.21 280 2511.21 291.663V328.015H2499.17Z" fill="#2C2C2C"></path>
<path d="M2480.66 263.499V328.015H2468.13V316.973C2463.54 324.789 2455.97 330 2445.3 330C2429.67 330 2421.73 320.447 2421.73 301.96V263.499H2434.38V301.588C2434.38 312.382 2439.72 319.206 2449.02 319.206C2460.44 319.206 2468.13 309.156 2468.13 295.385V263.499H2480.66Z" fill="#2C2C2C"></path>
<path d="M2404.07 327.891C2385.59 329.628 2375.79 328.883 2376.16 310.645V274.665H2362.39V263.499H2376.16V246.129H2388.81V263.499H2407.3V274.665H2388.81V305.931C2388.81 316.6 2389.31 317.965 2404.07 316.849V327.891Z" fill="#2C2C2C"></path>
<path d="M2292.23 328.015V263.499H2304.88V274.541C2309.47 266.725 2316.92 261.514 2327.59 261.514C2343.22 261.514 2351.28 271.067 2351.28 289.553V328.015H2338.51V289.926C2338.51 279.131 2333.29 272.308 2323.87 272.308C2312.45 272.308 2304.88 282.357 2304.88 296.129V328.015H2292.23Z" fill="#2C2C2C"></path>
<path d="M2247.14 330C2228.03 330 2214.38 315.732 2214.38 295.633C2214.38 275.658 2228.03 261.514 2247.14 261.514C2262.89 261.514 2276.17 273.3 2276.17 294.764V299.727H2227.41C2228.28 311.514 2235.23 319.578 2247.14 319.578C2255.82 319.578 2261.65 314.491 2262.89 309.28H2275.55C2273.56 320.695 2262.4 330 2247.14 330ZM2227.41 290.298H2263.52C2263.02 279.752 2256.32 272.308 2246.77 272.308C2235.72 272.308 2229.02 279.504 2227.41 290.298Z" fill="#2C2C2C"></path>
<path d="M2165.94 328.015L2136.29 263.499H2149.69L2172.89 313.995L2196.09 263.499H2209.61L2179.96 328.015H2165.94Z" fill="#2C2C2C"></path>
<path d="M2049.06 330C2034.3 330 2027.23 320.695 2027.23 310.893C2027.23 299.479 2037.03 292.531 2056.01 290.422L2071.52 288.685V284.963C2071.64 277.022 2067.05 272.308 2056.76 272.308C2046.95 272.308 2041.37 277.27 2041.37 285.335H2029.46C2029.46 270.323 2039.51 261.514 2057 261.514C2074.75 261.514 2084.18 270.198 2084.18 284.963V311.886C2084.18 317.221 2085.17 319.082 2090.25 318.586L2090.01 327.519C2078.22 330.868 2073.01 326.03 2072.26 315.856C2068.67 324.789 2060.73 330 2049.06 330ZM2051.79 320.074C2062.59 320.074 2070.9 310.645 2071.27 298.61L2059.61 299.851C2046.46 301.34 2039.76 304.566 2039.76 310.645C2039.76 315.112 2042.86 320.074 2051.79 320.074Z" fill="#2C2C2C"></path>
<path d="M1997.08 328.015V230H2009.73V328.015H1997.08Z" fill="#2C2C2C"></path>
<path d="M1949.57 330C1930.46 330 1916.81 315.732 1916.81 295.633C1916.81 275.658 1930.46 261.514 1949.57 261.514C1968.8 261.514 1982.44 275.658 1982.44 295.633C1982.44 315.732 1968.8 330 1949.57 330ZM1949.57 319.206C1961.35 319.206 1969.67 309.404 1969.67 295.633C1969.67 281.985 1961.35 272.308 1949.57 272.308C1937.9 272.308 1929.59 281.985 1929.59 295.633C1929.59 309.404 1937.9 319.206 1949.57 319.206Z" fill="#2C2C2C"></path>
<path d="M1894.72 253.697C1889.63 253.697 1885.66 249.851 1885.66 244.764C1885.66 239.801 1889.63 235.831 1894.72 235.831C1899.81 235.831 1903.65 239.801 1903.65 244.764C1903.65 249.851 1899.56 253.697 1894.72 253.697ZM1888.52 328.015V263.499H1901.05V328.015H1888.52Z" fill="#2C2C2C"></path>
<path d="M1835.65 328.015L1806 263.499H1819.4L1842.6 313.995L1865.8 263.499H1879.33L1849.67 328.015H1835.65Z" fill="#2C2C2C"></path>
<defs>
<clipPath id="clip0_42_189">
<rect width="1187" height="170.383" fill="white" transform="translate(210 203)"></rect>
</clipPath>
</defs>
</svg>