<svg width="2977" height="1347" viewBox="0 0 2977 1347" fill="none" xmlns="http://www.w3.org/2000/svg">
<rect width="2977" height="1347" fill="white"></rect>
<path d="M2590.25 364.211C2593.21 363.977 2593.82 363.796 2596.65 364.473C2598.64 367.283 2597.84 435.797 2597.84 444.561L2597.82 601.114C2575.88 602.101 2561.09 612.662 2551.37 631.907C2544.22 646.05 2537.19 660.318 2529.98 674.422L2480.61 771.724C2456.01 820.3 2437.95 863.226 2398.03 901.53C2337.51 959.612 2269.16 984.59 2186.58 984.098C2185.81 958.798 2186.49 929.919 2186.48 904.391L2186.56 748.186L1830.24 748.137C1829.73 704.796 1830.2 660.496 1830.19 617.075L1830.19 369.277C1870.69 368.518 1913.34 369.185 1953.97 369.182L2189.19 369.236L2189.07 747.141C2192.2 747.156 2195.34 747.085 2198.46 746.929C2222.66 745.65 2235.34 732.087 2245.34 711.518C2251.79 698.249 2258.71 684.787 2265.35 671.588L2314.16 575.402C2335.29 533.724 2352.71 493.343 2384.57 458.843C2440.96 397.796 2508.44 368.488 2590.25 364.211Z" fill="#2C2C2C"></path>
<path d="M380 333H501.724C511.97 333 521.369 338.618 526.3 347.545L621.368 521.237H503.111C493.018 521.237 483.696 515.85 478.766 507.077L380 333Z" fill="#2C2C2C"></path>
<path d="M752.401 333H874.202L626.748 766.422L565.578 658.297C560.724 649.755 560.724 639.212 565.578 630.67L728.133 347.083C733.141 338.387 742.385 333 752.401 333Z" fill="#2C2C2C"></path>
<path d="M1029.14 333H1150.09L766.51 1014.53L704.724 905.252C699.639 896.325 699.639 885.397 704.724 876.47L1003.56 347.853C1008.73 338.695 1018.51 333 1029.06 333H1029.14Z" fill="#2C2C2C"></path>
</svg>