<svg width="2977" height="1347" viewBox="0 0 2977 1347" fill="none" xmlns="http://www.w3.org/2000/svg">
<rect width="2977" height="1347" fill="white"></rect>
<path d="M2593.28 368.673C2593.45 370.735 2593.57 373.6 2593.68 377.058C2593.88 383.958 2593.97 393.016 2593.99 402.295C2594.04 420.926 2593.84 440.047 2593.84 444.561L2593.82 597.39C2583.85 598.358 2575.2 601.338 2567.77 606.349C2559.7 611.803 2553.3 619.512 2548.28 629.163L2547.8 630.104C2540.62 644.31 2533.63 658.492 2526.42 672.603L2526.42 672.612L2477.04 769.914L2477.04 769.917C2452.68 818.027 2435.12 859.612 2397.09 896.873L2395.26 898.644C2336.49 955.048 2270.35 979.795 2190.47 980.102C2189.88 955.842 2190.49 928.759 2190.48 904.394L2190.56 751.141C2193.26 751.13 2195.97 751.059 2198.66 750.924H2198.67C2211.55 750.243 2221.61 746.257 2229.77 739.547C2237.84 732.907 2243.82 723.797 2248.94 713.268L2248.94 713.266C2255.37 700.034 2262.26 686.635 2268.92 673.398L2317.73 577.212L2317.73 577.211C2339.01 535.234 2356.13 495.537 2387.51 461.558C2443.14 401.33 2509.62 372.433 2590.46 368.206L2590.51 368.203L2590.57 368.199C2592.05 368.082 2592.67 368.014 2593.23 368.004C2593.25 368.213 2593.27 368.436 2593.28 368.673ZM1834.19 373.207C1873.46 372.561 1914.56 373.184 1953.97 373.182V373.183L2185.19 373.235L2185.07 744.186L1834.2 744.137C1833.76 702.089 1834.2 659.235 1834.19 617.075L1834.19 373.207Z" stroke="#2C2C2C" stroke-width="8"></path>
<path d="M501.724 337C510.498 337 518.564 341.813 522.798 349.479L614.618 517.238H503.11C494.443 517.238 486.465 512.612 482.253 505.118L482.249 505.111L482.245 505.103L386.869 337H501.724Z" stroke="#2C2C2C" stroke-width="8"></path>
<path d="M752.4 337H867.312L626.764 758.326L569.06 656.327L569.056 656.321L568.678 655.63C564.905 648.445 565.028 639.745 569.048 632.659L731.6 349.079C735.9 341.611 743.829 337 752.4 337Z" stroke="#2C2C2C" stroke-width="8"></path>
<path d="M1029.06 337H1143.25L766.502 1006.39L708.206 903.283L708.199 903.272C703.814 895.573 703.814 886.15 708.199 878.45L708.206 878.438L1007.05 349.821L1007.05 349.816C1011.5 341.924 1019.94 337 1029.06 337Z" stroke="#2C2C2C" stroke-width="8"></path>
</svg>