<svg width="1100" height="156" viewBox="0 0 1100 156" fill="none" xmlns="http://www.w3.org/2000/svg">
<path d="M190.063 0.0527948C190.803 -0.00566071 190.955 -0.0508914 191.662 0.118224C192.159 0.82056 191.961 17.9497 191.961 20.1407L191.956 59.2784C186.471 59.525 182.772 62.1655 180.342 66.9766L176.34 74.9542C175.894 75.8397 175.446 76.7239 174.996 77.6055L162.652 101.931C156.502 114.075 151.987 124.807 142.008 134.383C126.877 148.903 109.79 155.148 89.1455 155.025C88.9778 149.49 89.0853 143.271 89.1133 137.527L89.1192 135.098L89.1406 96.047L0.0605132 96.0343C-0.0356792 87.9079 0.00538074 79.6466 0.0312163 71.4444L0.0468413 63.2686L0.0478178 1.3194C10.1724 1.1298 20.8343 1.29667 30.9931 1.29596L89.7979 1.30865L89.7676 95.7852C90.3552 95.7881 90.9428 95.7792 91.5293 95.7579L92.1153 95.7325C97.977 95.4226 101.134 92.2307 103.6 87.3565L103.836 86.88C104.642 85.2213 105.477 83.5504 106.318 81.8819L108.838 76.8975L121.04 52.8507C126.157 42.7567 130.405 32.9669 137.907 24.5235L138.644 23.711C152.74 8.44941 169.61 1.12211 190.063 0.0527948ZM190.806 1.00201C190.666 1.0046 190.513 1.02059 190.142 1.04987L190.128 1.05084L190.115 1.05182C169.904 2.10841 153.285 9.3328 139.378 24.3897C132.023 32.3535 127.8 41.5735 122.918 51.3419L121.932 53.3028L109.731 77.3497L109.73 77.3487C108.064 80.658 106.342 84.0084 104.735 87.3165V87.3175C103.455 89.9497 101.96 92.2268 99.9414 93.8868C97.9014 95.5643 95.3877 96.5603 92.168 96.7306L92.1651 96.7315C91.4912 96.7652 90.8155 96.7817 90.1397 96.7843L90.1192 135.099C90.1214 141.19 89.9702 147.96 90.1182 154.025C110.087 153.948 126.623 147.762 141.316 133.661C151.142 124.233 155.573 113.698 161.761 101.48V101.479L174.105 77.1534L174.106 77.1505C175.006 75.3868 175.894 73.6189 176.78 71.8477L179.449 66.5255C180.724 64.0027 182.359 61.9945 184.443 60.587C186.299 59.3344 188.464 58.5899 190.956 58.3477L190.961 20.1397C190.961 19.0104 191.011 14.2304 190.998 9.5733C190.992 7.25386 190.97 4.98958 190.919 3.26471C190.894 2.40032 190.862 1.68359 190.821 1.16803C190.817 1.10914 190.81 1.05392 190.806 1.00201ZM1.04684 63.2686C1.04937 73.8086 0.940604 84.5222 1.05075 95.0343L88.7676 95.046L88.7969 2.30768L30.9931 2.29596C21.1401 2.29665 10.865 2.14024 1.04684 2.30182V63.2686Z" fill="white"></path>
<path d="M1072.03 119C1054.54 119 1043.5 110.563 1043.12 96.9156H1055.16C1055.66 104.856 1062.23 109.447 1072.53 109.447C1081.71 109.447 1087.05 105.104 1087.05 99.397C1087.05 83.0199 1044.99 97.536 1044.99 70.737C1044.99 58.8263 1055.53 50.5137 1072.65 50.5137C1088.29 50.5137 1098.58 59.1985 1099.58 72.9702H1087.54C1087.17 64.9057 1081.21 60.067 1071.54 60.067C1062.73 60.067 1057.52 64.4094 1057.52 70.2407C1057.52 85.9975 1099.7 71.7295 1099.7 99.273C1099.7 111.184 1089.15 119 1072.03 119Z" fill="white"></path>
<path d="M1000.52 119C981.41 119 967.763 104.732 967.763 84.6328C967.763 64.6576 981.41 50.5137 1000.52 50.5137C1016.27 50.5137 1029.55 62.3003 1029.55 83.7643V88.7271H980.79C981.659 100.514 988.606 108.578 1000.52 108.578C1009.2 108.578 1015.03 103.491 1016.27 98.2804H1028.93C1026.94 109.695 1015.78 119 1000.52 119ZM980.79 79.2978H1016.89C1016.4 68.7519 1009.7 61.3077 1000.14 61.3077C989.103 61.3077 982.403 68.5037 980.79 79.2978Z" fill="white"></path>
<path d="M925.172 117.015V52.4987H937.207V64.7816C941.425 56.0967 950.234 51.7543 963.013 51.7543V63.5409C947.752 63.5409 937.207 68.9999 937.207 80.6625V117.015H925.172Z" fill="white"></path>
<path d="M906.66 52.4988V117.015H894.129V105.973C889.538 113.789 881.97 119 871.3 119C855.667 119 847.727 109.447 847.727 90.9603V52.4988H860.382V90.5881C860.382 101.382 865.717 108.206 875.022 108.206C886.436 108.206 894.129 98.1563 894.129 84.3846V52.4988H906.66Z" fill="white"></path>
<path d="M830.073 116.891C811.587 118.628 801.785 117.883 802.157 99.6451V63.665H788.386V52.4988H802.157V35.129H814.813V52.4988H833.299V63.665H814.813V94.9305C814.813 105.6 815.309 106.965 830.073 105.849V116.891Z" fill="white"></path>
<path d="M718.228 117.015V52.4988H730.883V63.541C735.474 55.7246 742.918 50.5137 753.588 50.5137C769.221 50.5137 777.285 60.067 777.285 78.5534V117.015H764.506V78.9256C764.506 68.1315 759.295 61.3077 749.866 61.3077C738.451 61.3077 730.883 71.3573 730.883 85.1291V117.015H718.228Z" fill="white"></path>
<path d="M673.138 119C654.031 119 640.384 104.732 640.384 84.6328C640.384 64.6576 654.031 50.5137 673.138 50.5137C688.895 50.5137 702.17 62.3003 702.17 83.7643V88.7271H653.411C654.28 100.514 661.227 108.578 673.138 108.578C681.823 108.578 687.654 103.491 688.895 98.2804H701.55C699.565 109.695 688.399 119 673.138 119ZM653.411 79.2978H689.515C689.019 68.7519 682.319 61.3077 672.766 61.3077C661.724 61.3077 655.024 68.5037 653.411 79.2978Z" fill="white"></path>
<path d="M591.939 117.015L562.286 52.4988H575.686L598.887 102.995L622.088 52.4988H635.611L605.959 117.015H591.939Z" fill="white"></path>
<path d="M475.064 119C460.3 119 453.228 109.695 453.228 99.8933C453.228 88.4789 463.029 81.531 482.012 79.4218L497.52 77.6849V73.9628C497.644 66.0224 493.054 61.3077 482.756 61.3077C472.955 61.3077 467.371 66.2705 467.371 74.335H455.461C455.461 59.3226 465.51 50.5137 483.004 50.5137C500.746 50.5137 510.175 59.1985 510.175 73.9628V100.886C510.175 106.221 511.168 108.082 516.255 107.586L516.007 116.519C504.22 119.868 499.009 115.03 498.265 104.856C494.667 113.789 486.726 119 475.064 119ZM477.793 109.074C488.587 109.074 496.9 99.6452 497.272 87.6104L485.61 88.8511C472.458 90.34 465.759 93.5658 465.759 99.6452C465.759 104.112 468.86 109.074 477.793 109.074Z" fill="white"></path>
<path d="M423.078 117.015V19H435.733V117.015H423.078Z" fill="white"></path>
<path d="M375.566 119C356.459 119 342.812 104.732 342.812 84.6328C342.812 64.6576 356.459 50.5137 375.566 50.5137C394.797 50.5137 408.444 64.6576 408.444 84.6328C408.444 104.732 394.797 119 375.566 119ZM375.566 108.206C387.352 108.206 395.665 98.4045 395.665 84.6328C395.665 70.9851 387.352 61.3077 375.566 61.3077C363.903 61.3077 355.591 70.9851 355.591 84.6328C355.591 98.4045 363.903 108.206 375.566 108.206Z" fill="white"></path>
<path d="M320.721 42.6973C315.634 42.6973 311.664 38.8511 311.664 33.7643C311.664 28.8015 315.634 24.8313 320.721 24.8313C325.808 24.8313 329.654 28.8015 329.654 33.7643C329.654 38.8511 325.56 42.6973 320.721 42.6973ZM314.518 117.015V52.4988H327.049V117.015H314.518Z" fill="white"></path>
<path d="M261.653 117.015L232 52.4988H245.4L268.6 102.995L291.801 52.4988H305.325L275.672 117.015H261.653Z" fill="white"></path>
</svg>