<svg width="115" height="32" viewBox="0 0 115 32" fill="none" xmlns="http://www.w3.org/2000/svg">
<path d="M0 0H6.44656C6.70148 0.717235 8.59298 3.61024 9.10899 4.42064L13.6082 11.5719C13.7258 11.7602 13.7842 12.0275 13.9208 12.2319C15.1839 14.1218 16.3007 16.115 17.5576 18.0084C17.8438 18.4396 17.9877 18.9405 18.3324 19.2789C18.4657 19.4673 18.7466 19.7032 18.7822 19.8335C18.906 21.2847 18.8384 23.4033 18.8448 24.8943C18.8508 26.2927 18.9106 28.6903 18.6958 30H18.542C18.5213 29.8781 18.4782 29.7103 18.413 29.606C16.1257 25.9469 13.7681 22.3102 11.4905 18.6433L4.5427 7.45329L1.60188 2.74621C1.22306 2.14011 0.548389 0.80035 0 0.355572V0Z" fill="white"></path>
<path d="M24.7715 0H31.175C31.0634 0.35273 30.3367 1.41583 30.1031 1.78834L27.6854 5.64953L22.19 14.5077L19.6809 18.5402C19.4341 18.9283 19.3576 19.3206 18.9648 19.5734C18.7179 19.3923 18.8347 17.587 18.837 17.2353L18.8454 13.0262C18.8454 11.9873 18.9406 10.9272 18.6462 9.93605C18.9299 9.58895 19.2926 8.89962 19.5511 8.49269C20.4108 7.1391 21.3198 5.70622 22.1184 4.32734C22.7809 3.18327 24.3086 1.1319 24.7715 0Z" fill="white"></path>
<path d="M18.6463 9.93604C18.9407 10.9272 18.8454 11.9873 18.8455 13.0262L18.837 17.2353C18.8348 17.5869 18.718 19.3923 18.9649 19.5734L18.7823 19.8335C18.7467 19.7032 18.4658 19.4673 18.3325 19.2789L18.405 19.2613C18.4707 18.9323 18.4331 17.9188 18.432 17.515L18.422 12.9251C18.4207 12.1474 18.3147 10.5872 18.6463 9.93604Z" fill="white"></path>
<path d="M44.358 8.95455L48.6761 21.1989H48.8466L53.1648 8.95455H55.0114L49.6705 23.5H47.8523L42.5114 8.95455H44.358ZM62.2384 8.95455V23.5H60.477V8.95455H62.2384ZM81.2427 16.2273C81.2427 17.7614 80.9657 19.0871 80.4117 20.2045C79.8577 21.322 79.0978 22.1837 78.1319 22.7898C77.166 23.3958 76.0628 23.6989 74.8222 23.6989C73.5817 23.6989 72.4785 23.3958 71.5126 22.7898C70.5467 22.1837 69.7867 21.322 69.2327 20.2045C68.6788 19.0871 68.4018 17.7614 68.4018 16.2273C68.4018 14.6932 68.6788 13.3674 69.2327 12.25C69.7867 11.1326 70.5467 10.2708 71.5126 9.66477C72.4785 9.05871 73.5817 8.75568 74.8222 8.75568C76.0628 8.75568 77.166 9.05871 78.1319 9.66477C79.0978 10.2708 79.8577 11.1326 80.4117 12.25C80.9657 13.3674 81.2427 14.6932 81.2427 16.2273ZM79.5381 16.2273C79.5381 14.9678 79.3274 13.9048 78.906 13.0384C78.4894 12.1719 77.9236 11.5161 77.2086 11.071C76.4984 10.6259 75.7029 10.4034 74.8222 10.4034C73.9415 10.4034 73.1437 10.6259 72.4288 11.071C71.7185 11.5161 71.1527 12.1719 70.7313 13.0384C70.3147 13.9048 70.1063 14.9678 70.1063 16.2273C70.1063 17.4867 70.3147 18.5497 70.7313 19.4162C71.1527 20.2827 71.7185 20.9384 72.4288 21.3835C73.1437 21.8286 73.9415 22.0511 74.8222 22.0511C75.7029 22.0511 76.4984 21.8286 77.2086 21.3835C77.9236 20.9384 78.4894 20.2827 78.906 19.4162C79.3274 18.5497 79.5381 17.4867 79.5381 16.2273ZM87.4043 23.5V8.95455H89.1657V21.9375H95.9271V23.5H87.4043ZM103.369 23.5H101.522L106.863 8.95455H108.681L114.022 23.5H112.176L107.829 11.2557H107.715L103.369 23.5ZM104.051 17.8182H111.494V19.3807H104.051V17.8182Z" fill="white"></path>
</svg>