<svg width="868" height="100" viewBox="0 0 868 100" fill="none" xmlns="http://www.w3.org/2000/svg">
<path d="M840.033 100C822.539 100 811.497 91.5633 811.125 77.9156H823.16C823.656 85.8561 830.232 90.4467 840.529 90.4467C849.711 90.4467 855.046 86.1042 855.046 80.397C855.046 64.0199 812.986 78.536 812.986 51.737C812.986 39.8263 823.532 31.5137 840.654 31.5137C856.286 31.5137 866.584 40.1985 867.577 53.9702H855.542C855.17 45.9057 849.214 41.067 839.537 41.067C830.728 41.067 825.517 45.4094 825.517 51.2407C825.517 66.9975 867.701 52.7295 867.701 80.273C867.701 92.1836 857.155 100 840.033 100Z" fill="white"></path>
<path d="M768.517 100C749.41 100 735.763 85.732 735.763 65.6328C735.763 45.6576 749.41 31.5137 768.517 31.5137C784.274 31.5137 797.549 43.3003 797.549 64.7643V69.7271H748.79C749.659 81.5137 756.606 89.5782 768.517 89.5782C777.202 89.5782 783.033 84.4913 784.274 79.2804H796.929C794.944 90.6948 783.778 100 768.517 100ZM748.79 60.2978H784.894C784.398 49.7519 777.698 42.3077 768.145 42.3077C757.103 42.3077 750.403 49.5037 748.79 60.2978Z" fill="white"></path>
<path d="M693.172 98.0149V33.4988H705.207V45.7817C709.425 37.0968 718.234 32.7544 731.013 32.7544V44.541C715.752 44.541 705.207 50 705.207 61.6626V98.0149H693.172Z" fill="white"></path>
<path d="M674.66 33.4988V98.0149H662.129V86.9727C657.538 94.7891 649.97 100 639.3 100C623.667 100 615.727 90.4467 615.727 71.9603V33.4988H628.382V71.5881C628.382 82.3821 633.717 89.206 643.022 89.206C654.436 89.206 662.129 79.1563 662.129 65.3846V33.4988H674.66Z" fill="white"></path>
<path d="M598.073 97.8907C579.587 99.6276 569.785 98.8832 570.157 80.645V44.6649H556.386V33.4986H570.157V16.1289H582.813V33.4986H601.299V44.6649H582.813V75.9304C582.813 86.6004 583.309 87.9651 598.073 86.8485V97.8907Z" fill="white"></path>
<path d="M486.228 98.0149V33.4988H498.883V44.541C503.474 36.7246 510.918 31.5137 521.588 31.5137C537.221 31.5137 545.285 41.067 545.285 59.5534V98.0149H532.506V59.9256C532.506 49.1315 527.295 42.3077 517.866 42.3077C506.451 42.3077 498.883 52.3573 498.883 66.1291V98.0149H486.228Z" fill="white"></path>
<path d="M441.138 100C422.031 100 408.384 85.732 408.384 65.6328C408.384 45.6576 422.031 31.5137 441.138 31.5137C456.895 31.5137 470.17 43.3003 470.17 64.7643V69.7271H421.411C422.28 81.5137 429.227 89.5782 441.138 89.5782C449.823 89.5782 455.654 84.4913 456.895 79.2804H469.55C467.565 90.6948 456.399 100 441.138 100ZM421.411 60.2978H457.515C457.019 49.7519 450.319 42.3077 440.766 42.3077C429.724 42.3077 423.024 49.5037 421.411 60.2978Z" fill="white"></path>
<path d="M359.939 98.0149L330.286 33.4988H343.686L366.887 83.995L390.088 33.4988H403.611L373.959 98.0149H359.939Z" fill="white"></path>
<path d="M243.064 100C228.3 100 221.228 90.6948 221.228 80.8933C221.228 69.4789 231.029 62.531 250.012 60.4218L265.52 58.6849V54.9628C265.644 47.0224 261.054 42.3077 250.756 42.3077C240.955 42.3077 235.371 47.2705 235.371 55.335H223.461C223.461 40.3226 233.51 31.5137 251.004 31.5137C268.746 31.5137 278.175 40.1985 278.175 54.9628V81.8859C278.175 87.2208 279.168 89.0819 284.255 88.5856L284.007 97.5186C272.22 100.868 267.009 96.0298 266.265 85.8561C262.667 94.7891 254.726 100 243.064 100ZM245.793 90.0744C256.587 90.0744 264.9 80.6452 265.272 68.6104L253.61 69.8511C240.458 71.34 233.759 74.5658 233.759 80.6452C233.759 85.1117 236.86 90.0744 245.793 90.0744Z" fill="white"></path>
<path d="M191.078 98.0149V0H203.733V98.0149H191.078Z" fill="white"></path>
<path d="M143.566 100C124.459 100 110.812 85.732 110.812 65.6328C110.812 45.6576 124.459 31.5137 143.566 31.5137C162.797 31.5137 176.444 45.6576 176.444 65.6328C176.444 85.732 162.797 100 143.566 100ZM143.566 89.206C155.352 89.206 163.665 79.4045 163.665 65.6328C163.665 51.9851 155.352 42.3077 143.566 42.3077C131.903 42.3077 123.591 51.9851 123.591 65.6328C123.591 79.4045 131.903 89.206 143.566 89.206Z" fill="white"></path>
<path d="M88.7211 23.6973C83.6343 23.6973 79.6641 19.8511 79.6641 14.7643C79.6641 9.80152 83.6343 5.8313 88.7211 5.8313C93.808 5.8313 97.6541 9.80152 97.6541 14.7643C97.6541 19.8511 93.5598 23.6973 88.7211 23.6973ZM82.5177 98.0149V33.4988H95.0487V98.0149H82.5177Z" fill="white"></path>
<path d="M29.6526 98.0149L0 33.4988H13.3995L36.6005 83.995L59.8015 33.4988H73.325L43.6725 98.0149H29.6526Z" fill="white"></path>
</svg>