<svg width="1101" height="156" viewBox="0 0 1101 156" fill="none" xmlns="http://www.w3.org/2000/svg">
<path d="M190.869 0.5C190.98 0.501289 191.094 0.512699 191.257 0.542969C191.278 0.686427 191.3 0.88209 191.319 1.12891C191.361 1.65661 191.393 2.3831 191.419 3.25C191.47 4.98184 191.492 7.25164 191.498 9.57227C191.51 14.2231 191.461 19.0287 191.461 20.1406L191.456 58.8066C188.842 58.9925 186.611 59.7277 184.724 61.002C182.724 62.3518 181.14 64.2868 179.896 66.751C178.105 70.2947 176.352 73.8511 174.551 77.3779L174.55 77.3789L162.207 101.705C156.038 113.886 151.564 124.519 141.662 134.021C126.75 148.332 109.938 154.547 89.6318 154.524C89.4628 148.327 89.6215 141.334 89.6191 135.098L89.6396 96.2842L89.7646 96.2852C90.557 96.289 91.3497 96.2709 92.1396 96.2314H92.1416C95.2642 96.0664 97.6734 95.104 99.624 93.5C101.564 91.9049 103.02 89.7001 104.285 87.0986V87.0977C105.895 83.7846 107.62 80.426 109.284 77.1211L121.485 53.0771V53.0762C126.786 42.6194 131.106 32.6096 139.011 24.0498C153.013 8.89067 169.757 1.61469 190.089 0.551758V0.552734L190.103 0.550781C190.499 0.519516 190.68 0.497825 190.869 0.5ZM0.546875 1.81055C10.519 1.63527 20.9869 1.7966 30.9932 1.7959L89.2969 1.80762L89.2676 95.5469H89.1406L0.555664 95.5342C0.436659 84.8603 0.54944 73.9662 0.546875 63.2686V1.81055Z" stroke="white"></path>
<path d="M1072.65 50.0136C1080.56 50.0136 1087.16 52.2111 1091.93 56.1943C1096.69 60.1817 1099.57 65.926 1100.08 72.9345L1100.11 73.4706H1087.06L1087.04 72.9931C1086.86 69.088 1085.34 66.002 1082.71 63.8837C1080.08 61.7575 1076.3 60.5673 1071.54 60.5673C1067.21 60.5673 1063.82 61.6341 1061.53 63.3661C1059.24 65.0905 1058.02 67.4887 1058.02 70.2402C1058.02 72.0828 1058.63 73.4563 1059.69 74.5312C1060.76 75.622 1062.32 76.4332 1064.27 77.0761C1068.17 78.3693 1073.37 78.9121 1078.7 79.8447C1083.97 80.7682 1089.34 82.0725 1093.4 84.9238C1097.49 87.8035 1100.2 92.2325 1100.2 99.2734C1100.2 105.395 1097.48 110.475 1092.58 114.009C1087.69 117.531 1080.66 119.5 1072.03 119.5C1063.21 119.5 1055.96 117.373 1050.85 113.473C1045.74 109.563 1042.82 103.898 1042.62 96.9296L1042.61 96.416H1055.63L1055.66 96.8847C1055.9 100.709 1057.59 103.701 1060.46 105.752C1063.34 107.813 1067.45 108.946 1072.53 108.946C1077.05 108.946 1080.56 107.878 1082.94 106.157C1085.3 104.445 1086.55 102.078 1086.55 99.3974C1086.55 97.4705 1085.93 96.0302 1084.87 94.9052C1083.8 93.7657 1082.24 92.9185 1080.31 92.2509C1076.42 90.9081 1071.24 90.3614 1065.93 89.4687C1060.67 88.5846 1055.32 87.3618 1051.28 84.6318C1047.19 81.8724 1044.49 77.5979 1044.49 70.7372C1044.49 64.618 1047.2 59.4154 1052.1 55.7578C1056.99 52.1091 1064.02 50.0136 1072.65 50.0136Z" stroke="white"></path>
<path d="M1000.52 50.0136C1008.52 50.0136 1015.92 53.0105 1021.31 58.748C1026.7 64.4855 1030.05 72.928 1030.05 83.7646V89.2275H981.333C981.837 94.7963 983.738 99.4461 986.874 102.727C990.103 106.107 994.682 108.078 1000.52 108.078C1009.01 108.078 1014.61 103.111 1015.79 98.165L1015.88 97.7802H1029.52L1029.42 98.3661C1027.39 110.062 1015.98 119.5 1000.52 119.5C981.112 119.5 967.263 104.986 967.263 84.6328C967.263 64.4003 981.116 50.0138 1000.52 50.0136ZM1000.14 61.8076C994.739 61.8076 990.433 63.5656 987.279 66.6142C984.234 69.5582 982.228 73.7401 981.376 78.7978H1016.36C1015.69 68.7398 1009.22 61.8076 1000.14 61.8076Z" stroke="white"></path>
<path d="M963.513 51.2543V64.0405H963.013C955.43 64.0405 949.084 65.3992 944.651 68.1528C940.247 70.8885 937.707 75.0123 937.707 80.6625V117.515H924.672V51.9985H937.707V62.8051C942.337 55.0676 950.999 51.2544 963.013 51.2543H963.513Z" stroke="white"></path>
<path d="M860.882 51.9988V90.5876C860.882 95.9087 862.197 100.189 864.6 103.129C866.991 106.055 870.502 107.706 875.021 107.706C880.568 107.706 885.204 105.27 888.464 101.149C891.73 97.0204 893.629 91.1811 893.629 84.3845V51.9988H907.159V117.515H893.629V107.713C888.89 114.837 881.471 119.5 871.3 119.5C863.378 119.5 857.326 117.075 853.268 112.234C849.223 107.409 847.227 100.264 847.227 90.9607V51.9988H860.882Z" stroke="white"></path>
<path d="M815.312 34.629V51.9991H833.799V64.1652H815.312V94.9308C815.313 97.6078 815.345 99.6491 815.613 101.21C815.88 102.759 816.367 103.755 817.214 104.415C818.079 105.089 819.401 105.48 821.492 105.615C823.576 105.75 826.344 105.629 830.035 105.35L830.573 105.31V117.346L830.12 117.389C825.496 117.823 821.391 118.105 817.845 117.993C814.301 117.882 811.275 117.377 808.828 116.21C806.364 115.035 804.51 113.198 803.306 110.481C802.11 107.782 801.564 104.237 801.657 99.6456V64.1652H787.886V51.9991H801.657V34.629H815.312Z" stroke="white"></path>
<path d="M753.587 50.0136C761.509 50.0136 767.591 52.4387 771.68 57.2783C775.756 62.1028 777.785 69.2485 777.785 78.5536V117.515H764.006V78.9257C764.006 73.602 762.72 69.3222 760.333 66.3837C757.958 63.4597 754.449 61.8076 749.866 61.8076C744.32 61.8076 739.717 64.2431 736.488 68.3622C733.252 72.4905 731.383 78.3303 731.383 85.1288V117.515H717.728V51.999H731.383V61.7958C736.107 54.6764 743.417 50.0137 753.587 50.0136Z" stroke="white"></path>
<path d="M673.138 50.0136C681.144 50.0136 688.538 53.0105 693.928 58.748C699.317 64.4855 702.67 72.928 702.67 83.7646V89.2275H653.954C654.458 94.7963 656.36 99.4461 659.495 102.727C662.724 106.107 667.303 108.078 673.138 108.078C681.634 108.078 687.23 103.111 688.408 98.165L688.5 97.7802H702.145L702.043 98.3661C700.009 110.062 688.596 119.5 673.138 119.5C653.733 119.5 639.884 104.986 639.884 84.6328C639.884 64.4003 653.737 50.0138 673.138 50.0136ZM672.766 61.8076C667.36 61.8076 663.054 63.5656 659.9 66.6142C656.855 69.5582 654.849 73.7401 653.997 78.7978H688.985C688.306 68.7398 681.838 61.8076 672.766 61.8076Z" stroke="white"></path>
<path d="M576.006 51.9988L576.14 52.2898L598.886 101.797L621.633 52.2898L621.767 51.9988H636.392L636.065 52.7078L606.413 117.223L606.279 117.514H591.618L591.484 117.223L561.832 52.7078L561.506 51.9988H576.006Z" stroke="white"></path>
<path d="M483.004 50.0136C491.95 50.0136 498.877 52.2032 503.573 56.3261C508.279 60.4576 510.676 66.47 510.676 73.9628V100.886C510.676 102.209 510.737 103.29 510.901 104.161C511.065 105.032 511.325 105.659 511.693 106.104C512.405 106.966 513.688 107.333 516.206 107.088L516.771 107.033L516.755 107.6L516.507 116.532L516.496 116.899L516.144 117C510.189 118.692 505.754 118.358 502.703 116.165C500.037 114.248 498.543 110.993 497.96 106.762C493.978 114.853 486.137 119.5 475.063 119.5C467.573 119.5 461.981 117.136 458.259 113.478C454.54 109.824 452.728 104.914 452.728 99.8935C452.728 94.0158 455.264 89.2768 460.212 85.7607C465.134 82.263 472.426 79.9836 481.956 78.9247L497.021 77.2363V73.955C497.081 70.0834 495.994 67.0768 493.713 65.0292C491.42 62.9717 487.838 61.8076 482.756 61.8076C477.934 61.8076 474.218 63.0286 471.714 65.1767C469.22 67.3163 467.871 70.4253 467.871 74.3349V74.8349H454.961V74.3349C454.961 66.7109 457.517 60.6071 462.345 56.4169C467.162 52.2355 474.179 50.0137 483.004 50.0136ZM485.662 89.3486L485.661 89.3476C479.104 90.0902 474.218 91.2615 470.985 92.9687C467.778 94.6624 466.259 96.8441 466.259 99.6454C466.259 101.764 466.993 103.983 468.771 105.673C470.547 107.361 473.419 108.574 477.793 108.574C488.086 108.574 496.141 99.7193 496.748 88.1679L485.662 89.3486Z" stroke="white"></path>
<path d="M436.233 18.5V117.515H422.578V18.5H436.233Z" stroke="white"></path>
<path d="M375.565 50.0136C385.308 50.0136 393.66 53.5988 399.576 59.7353C405.491 65.8707 408.944 74.5294 408.944 84.6328C408.944 104.987 395.093 119.5 375.565 119.5C356.161 119.5 342.312 104.986 342.312 84.6328C342.312 64.4003 356.164 50.0138 375.565 50.0136ZM375.565 61.8076C364.249 61.8078 356.091 71.1863 356.091 84.6328C356.091 98.2088 364.254 107.706 375.565 107.706C387.003 107.706 395.165 98.2068 395.165 84.6328C395.165 71.1884 387.008 61.8076 375.565 61.8076Z" stroke="white"></path>
<path d="M327.549 51.9992V117.515H314.018V51.9992H327.549ZM320.721 24.3312C326.088 24.3312 330.154 28.5297 330.154 33.7639C330.154 39.1359 325.826 43.1974 320.721 43.1974C315.367 43.1972 311.164 39.1357 311.164 33.7639C311.164 28.5208 315.363 24.3315 320.721 24.3312Z" stroke="white"></path>
<path d="M245.72 51.9988L245.854 52.2898L268.6 101.797L291.347 52.2898L291.48 51.9988H306.105L305.779 52.7078L276.127 117.223L275.993 117.514H261.332L261.198 117.223L231.546 52.7078L231.22 51.9988H245.72Z" stroke="white"></path>
</svg>